<?xml version="1.0" encoding="UTF-8" standalone="no"?>
<!-- Created with Inkscape (http://www.inkscape.org/) -->
<svg
   xmlns:svg="http://www.w3.org/2000/svg"
   xmlns="http://www.w3.org/2000/svg"
   version="1.0"
   width="673.22833"
   height="672.87402"
   id="svg2">
  <defs
     id="defs4" />
  <g
     transform="translate(0.3990814,157.51198)"
     id="layer1">
    <g
       transform="translate(17.716526,17.679352)"
       id="g40188">
      <path
         d="M 637.3962,480.00334 L -0.39908143,480.00334 L -0.39908143,-157.51198 L 637.3962,-157.51198 L 637.3962,480.00334 z "
         style="font-size:7px;letter-spacing:0;word-spacing:0;fill:#ffffff;fill-rule:nonzero;stroke:none;font-family:fnt2, &quot;Dax&quot;, Arial"
         id="path37596" />
      <path
         d="M 617.4026,460.06975 L 19.594519,460.06975 L 19.594519,260.84366 L 617.4026,260.84366 L 617.4026,460.06975 z "
         style="font-size:7px;letter-spacing:0;word-spacing:0;fill:#71787d;fill-rule:nonzero;stroke:none;font-family:fnt2, &quot;Dax&quot;, Arial"
         id="path37598" />
      <path
         d="M 617.4026,260.85364 L 19.594519,260.85364 L 19.594519,-137.58846 L 617.4026,-137.58846 L 617.4026,260.85364 z "
         style="font-size:7px;letter-spacing:0;word-spacing:0;fill:#e1001a;fill-rule:nonzero;stroke:none;font-family:fnt2, &quot;Dax&quot;, Arial"
         id="path37600" />
      <path
         d="M 235.21623,417.11352 L 229.58807,417.11352 L 215.25268,368.75906 L 222.14046,368.75906 L 231.06764,402.76814 C 231.83733,405.7872 232.47713,409.08612 232.47713,409.08612 L 232.61711,409.08612 C 232.61711,409.08612 233.3169,405.7872 234.0866,402.76814 L 243.15375,368.75906 L 249.27175,368.75906 L 235.21623,417.11352"
         style="font-size:7px;letter-spacing:0;word-spacing:0;fill:#ffffff;fill-rule:nonzero;stroke:none;font-family:fnt2, &quot;Dax&quot;, Arial"
         id="path37604" />
      <path
         d="M 256.51841,379.22572 L 262.51649,379.22572 L 262.51649,417.11352 L 256.51841,417.11352 L 256.51841,379.22572 z M 259.51749,371.90802 C 257.51813,371.90802 255.51877,370.36853 255.51877,368.53911 C 255.51877,366.63969 257.51813,365.10021 259.51749,365.10021 C 261.51685,365.10021 262.51649,366.63969 262.51649,368.53911 C 262.51649,370.36853 261.51685,371.90802 259.51749,371.90802"
         style="font-size:7px;letter-spacing:0;word-spacing:0;fill:#ffffff;fill-rule:nonzero;stroke:none;font-family:fnt2, &quot;Dax&quot;, Arial"
         id="path37606" />
      <path
         d="M 280.0519,417.67334 C 275.97321,417.67334 272.39433,416.6137 270.35503,415.06414 L 272.04448,410.99552 C 273.374,412.11516 276.0432,413.24479 279.42209,413.24479 C 283.64076,413.24479 286.44985,410.36571 286.44985,406.70686 C 286.44985,402.76814 284.34047,401.00871 280.19179,399.46922 C 272.81418,396.72005 271.33469,392.79132 271.33469,388.8526 C 271.33469,383.23442 275.76324,378.45593 282.65103,378.45593 C 286.51984,378.45593 289.53881,379.71555 291.50821,381.05506 L 289.88875,384.77391 C 288.76911,383.93413 286.51984,382.66462 283.57077,382.66462 C 279.42209,382.66462 277.24281,385.4137 277.24281,388.64264 C 277.24281,392.30149 279.91192,394.05094 283.57077,395.46043 C 290.94839,398.26961 292.77781,402.20832 292.77781,406.56688 C 292.77781,412.32504 287.77937,417.67334 280.0519,417.67334"
         style="font-size:7px;letter-spacing:0;word-spacing:0;fill:#ffffff;fill-rule:nonzero;stroke:none;font-family:fnt2, &quot;Dax&quot;, Arial"
         id="path37610" />
      <path
         d="M 301.50396,379.22572 L 307.50204,379.22572 L 307.50204,417.11352 L 301.50396,417.11352 L 301.50396,379.22572 z M 304.50304,371.90802 C 302.50368,371.90802 300.50432,370.36853 300.50432,368.53911 C 300.50432,366.63969 302.50368,365.10021 304.50304,365.10021 C 306.5024,365.10021 308.50176,366.63969 308.50176,368.53911 C 308.50176,370.36853 306.5024,371.90802 304.50304,371.90802"
         style="font-size:7px;letter-spacing:0;word-spacing:0;fill:#ffffff;fill-rule:nonzero;stroke:none;font-family:fnt2, &quot;Dax&quot;, Arial"
         id="path37612" />
      <path
         d="M 330.30472,382.38466 C 327.49563,382.38466 325.87617,382.87449 324.11674,383.86423 L 324.11674,412.88486 C 325.52632,413.59464 327.49563,413.80461 329.46503,413.80461 C 337.26249,413.80461 340.35154,407.26668 340.35154,397.70979 C 340.35154,389.41242 337.47246,382.38466 330.30472,382.38466 M 329.32506,417.81331 C 324.18672,417.81331 320.25799,416.6137 317.99865,415.13413 L 317.99865,361.93119 L 324.11674,361.93119 L 324.11674,380.49523 C 326.01615,379.50558 328.12544,378.7358 331.84429,378.7358 C 340.56141,378.7358 346.53952,386.04351 346.53952,397.49982 C 346.53952,409.65593 340.56141,417.81331 329.32506,417.81331"
         style="font-size:7px;letter-spacing:0;word-spacing:0;fill:#ffffff;fill-rule:nonzero;stroke:none;font-family:fnt2, &quot;Dax&quot;, Arial"
         id="path37616" />
      <path
         d="M 355.48667,361.93119 L 361.48475,361.93119 L 361.48475,417.11352 L 355.48667,417.11352 L 355.48667,361.93119 z "
         style="font-size:7px;letter-spacing:0;word-spacing:0;fill:#ffffff;fill-rule:nonzero;stroke:none;font-family:fnt2, &quot;Dax&quot;, Arial"
         id="path37618" />
      <path
         d="M 382.16807,432.2087 L 375.50023,432.2087 L 381.81821,417.11352 L 369.17227,379.22572 L 375.78019,379.22572 L 383.57765,406.42699 C 384.34743,409.02612 384.48732,411.27539 384.48732,411.27539 L 384.6273,411.27539 C 384.6273,411.27539 384.83727,409.02612 385.61695,406.42699 L 393.83434,379.22572 L 399.60248,379.22572 L 382.16807,432.2087"
         style="font-size:7px;letter-spacing:0;word-spacing:0;fill:#ffffff;fill-rule:nonzero;stroke:none;font-family:fnt2, &quot;Dax&quot;, Arial"
         id="path37622" />
      <path
         d="M 435.87187,432.2087 L 429.18398,432.2087 L 435.51194,417.11352 L 422.86601,379.22572 L 429.46394,379.22572 L 437.27138,406.42699 C 438.04117,409.02612 438.18114,411.27539 438.18114,411.27539 L 438.32103,411.27539 C 438.32103,411.27539 438.531,409.02612 439.31077,406.42699 L 447.52807,379.22572 L 453.2963,379.22572 L 435.87187,432.2087"
         style="font-size:7px;letter-spacing:0;word-spacing:0;fill:#ffffff;fill-rule:nonzero;stroke:none;font-family:fnt2, &quot;Dax&quot;, Arial"
         id="path37626" />
      <path
         d="M 472.67007,382.45465 C 465.44233,382.45465 464.03284,390.54205 464.03284,398.19962 C 464.03284,405.8571 465.58231,413.52466 472.67007,413.52466 C 479.9177,413.52466 481.24731,405.7872 481.24731,398.19962 C 481.24731,390.61204 479.9177,382.45465 472.67007,382.45465 M 472.67007,417.81331 C 462.34339,417.81331 457.84477,409.30598 457.84477,398.19962 C 457.84477,386.89319 462.41329,378.52592 472.61007,378.52592 C 483.00674,378.52592 487.43529,386.89319 487.43529,398.19962 C 487.43529,409.30598 482.93675,417.81331 472.67007,417.81331"
         style="font-size:7px;letter-spacing:0;word-spacing:0;fill:#ffffff;fill-rule:nonzero;stroke:none;font-family:fnt2, &quot;Dax&quot;, Arial"
         id="path37630" />
      <path
         d="M 509.36728,417.87332 C 499.8703,417.87332 495.93158,413.10481 495.93158,405.50724 L 495.93158,379.22572 L 502.11957,379.22572 L 502.11957,405.71721 C 502.11957,410.14576 504.50881,413.52466 509.70715,413.52466 C 512.6662,413.52466 514.77549,413.03482 516.53493,411.97518 L 516.53493,379.22572 L 522.71302,379.22572 L 522.71302,414.85426 C 519.90393,416.47372 515.47529,417.87332 509.36728,417.87332"
         style="font-size:7px;letter-spacing:0;word-spacing:0;fill:#ffffff;fill-rule:nonzero;stroke:none;font-family:fnt2, &quot;Dax&quot;, Arial"
         id="path37634" />
      <path
         d="M 547.524,383.29434 C 544.42505,382.38466 540.91617,382.66462 538.87678,384.00412 L 538.87678,417.11352 L 532.68879,417.11352 L 532.68879,381.25503 C 536.41754,379.36561 539.99642,378.38594 548.99358,378.59591 L 547.524,383.29434"
         style="font-size:7px;letter-spacing:0;word-spacing:0;fill:#ffffff;fill-rule:nonzero;stroke:none;font-family:fnt2, &quot;Dax&quot;, Arial"
         id="path37638" />
      <path
         d="M 562.70117,417.67334 C 558.63246,417.67334 555.0436,416.6137 553.0043,415.06414 L 554.69375,410.99552 C 556.02327,412.11516 558.70245,413.24479 562.07136,413.24479 C 566.29003,413.24479 569.09912,410.36571 569.09912,406.70686 C 569.09912,402.76814 566.98974,401.00871 562.84106,399.46922 C 555.46345,396.72005 553.99395,392.79132 553.99395,388.8526 C 553.99395,383.23442 558.41251,378.45593 565.3003,378.45593 C 569.16911,378.45593 572.19806,379.71555 574.15748,381.05506 L 572.53802,384.77391 C 571.41838,383.93413 569.16911,382.66462 566.22004,382.66462 C 562.07136,382.66462 559.89208,385.4137 559.89208,388.64264 C 559.89208,392.30149 562.56119,394.05094 566.22004,395.46043 C 573.59766,398.26961 575.42708,402.20832 575.42708,406.56688 C 575.42708,412.32504 570.43863,417.67334 562.70117,417.67334"
         style="font-size:7px;letter-spacing:0;word-spacing:0;fill:#ffffff;fill-rule:nonzero;stroke:none;font-family:fnt2, &quot;Dax&quot;, Arial"
         id="path37642" />
      <path
         d="M 124.55078,-44.448346 L 124.55078,-44.448346 C 130.52889,-44.448346 135.38735,-49.296736 135.38735,-55.284826 C 135.38735,-61.262936 130.52889,-66.111326 124.55078,-66.111326 L 91.061569,-66.111326 L 91.061569,-3.0816157 L 124.55078,-3.0816157 C 131.06873,-3.0816157 136.35703,-8.3699157 136.35703,-14.897766 C 136.35703,-21.435696 131.06873,-26.723986 124.55078,-26.723986 L 96.959619,-26.723986 L 96.959619,-44.448346 L 124.55078,-44.448346 z M 145.39413,-35.831086 C 150.77239,-30.482786 154.09128,-23.075216 154.09128,-14.897766 C 154.09128,1.4170043 140.86555,14.642734 124.55078,14.642734 L 73.327229,14.642734 L 73.327229,-83.845676 L 124.55078,-83.845676 C 140.3257,-83.845676 153.10163,-71.059756 153.10163,-55.284826 C 153.10163,-47.737276 150.18252,-40.929476 145.39413,-35.831086"
         style="font-size:7px;letter-spacing:0;word-spacing:0;fill:#ffffff;fill-rule:nonzero;stroke:none;font-family:fnt2, &quot;Dax&quot;, Arial"
         id="path37646" />
      <path
         d="M 322.02742,-83.845676 L 322.02742,-83.845676 C 337.80234,-83.845676 350.57827,-71.059756 350.57827,-55.284826 C 350.57827,-47.737276 347.65916,-40.929476 342.87069,-35.831086 C 348.24894,-30.482786 351.57791,-23.075216 351.57791,-14.897766 L 351.57791,14.642734 L 333.84357,14.642734 L 333.84357,-14.897766 C 333.84357,-21.435696 328.55527,-26.723986 322.02742,-26.723986 L 294.44624,-26.723986 L 294.44624,-44.448346 L 322.02742,-44.448346 C 328.01551,-44.448346 332.8639,-49.296736 332.8639,-55.284826 C 332.8639,-61.262936 328.01551,-66.111326 322.02742,-66.111326 L 288.53812,-66.111326 L 288.53812,14.642734 L 270.81385,14.642734 L 270.81385,-83.845676 L 322.02742,-83.845676 z M 322.02742,-83.845676 L 322.02742,-83.845676 C 337.80234,-83.845676 350.57827,-71.059756 350.57827,-55.284826 C 350.57827,-47.737276 347.65916,-40.929476 342.87069,-35.831086 C 348.24894,-30.482786 351.57791,-23.075216 351.57791,-14.897766 L 351.57791,14.642734 L 333.84357,14.642734 L 333.84357,-14.897766 C 333.84357,-21.435696 328.55527,-26.723986 322.02742,-26.723986 L 294.44624,-26.723986 L 294.44624,-44.448346 L 322.02742,-44.448346 C 328.01551,-44.448346 332.8639,-49.296736 332.8639,-55.284826 C 332.8639,-61.262936 328.01551,-66.111326 322.02742,-66.111326 L 288.53812,-66.111326 L 288.53812,14.642734 L 270.81385,14.642734 L 270.81385,-83.845676 L 322.02742,-83.845676"
         style="font-size:7px;letter-spacing:0;word-spacing:0;fill:#ffffff;fill-rule:nonzero;stroke:none;font-family:fnt2, &quot;Dax&quot;, Arial"
         id="path37650" />
      <path
         d="M 440.22947,-83.845676 L 440.22947,-66.111326 L 410.67898,-66.111326 C 393.27452,-66.111326 379.15908,-52.005876 379.15908,-34.591436 C 379.15908,-17.187066 393.26453,-3.0816157 410.67898,-3.0816157 L 440.22947,-3.0816157 L 440.22947,14.642734 L 410.67898,14.642734 C 383.4777,14.642734 361.42474,-7.4002357 361.42474,-34.591436 C 361.42474,-61.792716 383.46772,-83.845676 410.67898,-83.845676 L 440.22947,-83.845676"
         style="font-size:7px;letter-spacing:0;word-spacing:0;fill:#ffffff;fill-rule:nonzero;stroke:none;font-family:fnt2, &quot;Dax&quot;, Arial"
         id="path37654" />
      <path
         d="M 464.35169,-34.591436 L 464.35169,-34.591436 C 464.35169,-16.107366 479.34693,-1.1122157 497.84098,-1.1122157 C 516.33504,-1.1122157 531.33019,-16.107366 531.33019,-34.591436 C 531.33019,-53.095566 516.33504,-68.090716 497.84098,-68.090716 C 479.34693,-68.090716 464.35169,-53.095566 464.35169,-34.591436 M 478.14731,-34.591436 C 478.14731,-45.467956 486.96447,-54.295176 497.84098,-54.295176 C 508.72748,-54.295176 517.54464,-45.467956 517.54464,-34.591436 C 517.54464,-23.724996 508.72748,-14.897766 497.84098,-14.897766 C 486.96447,-14.897766 478.14731,-23.724996 478.14731,-34.591436 M 450.11625,-53.255516 C 457.58391,-72.309386 476.13797,-85.815076 497.84098,-85.815076 C 519.544,-85.815076 538.09806,-72.279346 545.55565,-53.215486 C 547.56499,-48.087136 552.56343,-44.448346 558.40156,-44.448346 L 574.1665,-44.448346 L 574.1665,-24.744606 L 558.40156,-24.744606 C 552.56343,-24.744606 547.56499,-21.115796 545.55565,-15.987446 C 538.09806,3.0863943 519.544,16.612054 497.84098,16.612054 C 476.13797,16.612054 457.58391,3.1164443 450.11625,-15.947416 C 448.11689,-21.075856 443.11853,-24.744606 437.27042,-24.744606 L 421.51546,-24.744606 L 421.51546,-44.448346 L 437.27042,-44.448346 C 443.11853,-44.448346 448.11689,-48.127166 450.11625,-53.255516"
         style="font-size:7px;letter-spacing:0;word-spacing:0;fill:#ffffff;fill-rule:nonzero;stroke:none;font-family:fnt2, &quot;Dax&quot;, Arial"
         id="path37658" />
      <path
         d="M 233.87567,-34.591436 L 233.87567,-45.428006 C 233.87567,-57.933966 223.73899,-68.090716 211.22295,-68.090716 C 198.707,-68.090716 188.56024,-57.933966 188.56024,-45.428006 L 188.56024,14.642734 L 170.83597,14.642734 L 170.83597,-45.428006 C 170.83597,-67.740866 188.92017,-85.815076 211.22295,-85.815076 C 233.51583,-85.815076 251.60003,-67.740866 251.60003,-45.428006 L 251.60003,14.642734 L 233.87567,14.642734 L 233.87567,-16.867166 L 194.47835,-16.867166 L 194.47835,-34.591436 L 233.87567,-34.591436"
         style="font-size:7px;letter-spacing:0;word-spacing:0;fill:#ffffff;fill-rule:nonzero;stroke:none;font-family:fnt2, &quot;Dax&quot;, Arial"
         id="path37662" />
    </g>
  </g>
</svg>
